<svg xmlns="http://www.w3.org/2000/svg" version="1.1" xmlns:xlink="http://www.w3.org/1999/xlink" xmlns:svgjs="http://svgjs.dev/svgjs" width="1000" height="118" viewBox="0 0 1000 118"><g transform="matrix(1,0,0,1,-0.43342188118060676,-0.1623634615384688)"><svg viewBox="0 0 329 39" data-background-color="#ffffff" preserveAspectRatio="xMidYMid meet" height="118" width="1000" xmlns="http://www.w3.org/2000/svg" xmlns:xlink="http://www.w3.org/1999/xlink"><g id="tight-bounds" transform="matrix(1,0,0,1,0.14259579890841678,0.0536625000000015)"><svg viewBox="0 0 328.71480840218317 38.89267499999999" height="38.89267499999999" width="328.71480840218317"><g><svg viewBox="0 0 328.71480840218317 38.89267499999999" height="38.89267499999999" width="328.71480840218317"><g><svg viewBox="0 0 328.71480840218317 38.89267499999999" height="38.89267499999999" width="328.71480840218317"><g id="textblocktransform"><svg viewBox="0 0 328.71480840218317 38.89267499999999" height="38.89267499999999" width="328.71480840218317" id="textblock"><g><svg viewBox="0 0 328.71480840218317 38.89267499999999" height="38.89267499999999" width="328.71480840218317"><g><svg><g></g><g></g></svg></g><g><svg><g><svg></svg></g><g></g></svg></g><g id="text-0"><svg viewBox="0 0 328.71480840218317 38.89267499999999" height="38.89267499999999" width="328.71480840218317"><g transform="matrix(1,0,0,1,0,2.9213374999999964)"><svg width="112.05" viewBox="0 -31.55 112.04 32.05" height="32.05" data-palette-color="#010c80"><path d="M21.7-31.05L28.15 0 17.65 0 16.65-4.8 11.1-4.8 10.05 0 0 0 6.45-31.05 21.7-31.05ZM11.85-11.25L15.9-11.25 14-21.65 13.8-21.65 11.85-11.25ZM41.15-31.05L41.15-11Q41.15-8.3 43.57-8.3 46-8.3 46-11.05L46-11.05 46-31.05 56.7-31.05 56.7-10.4Q56.7-4.9 53.25-2.2 49.8 0.5 43.35 0.5L43.35 0.5Q30.25 0.5 30.25-10.3L30.25-10.3 30.25-31.05 41.15-31.05ZM83.09-31.05L82.5-22.6 75.9-22.6 75.9 0 65.25 0 65.25-22.6 58.3-22.6 58.75-31.05 83.09-31.05ZM83.59-15.73Q83.59-24.05 86.92-27.8 90.24-31.55 97.87-31.55 105.49-31.55 108.77-27.85 112.04-24.15 112.04-15.83 112.04-7.5 108.67-3.5 105.29 0.5 97.77 0.5 90.24 0.5 86.92-3.45 83.59-7.4 83.59-15.73ZM100.64-21.68Q99.99-22.95 97.84-22.95 95.69-22.95 95.09-21.7 94.49-20.45 94.49-16.35L94.49-16.35 94.49-14.15Q94.49-9.95 95.14-8.7 95.79-7.45 97.99-7.45 100.19-7.45 100.74-8.65 101.29-9.85 101.29-14L101.29-14 101.29-16.3Q101.29-20.4 100.64-21.68Z" opacity="1" transform="matrix(1,0,0,1,0,0)" fill="#010c80" class="undefined-lv-0"></path></svg></g><g><svg xmlns="http://www.w3.org/2000/svg" xmlns:xlink="http://www.w3.org/1999/xlink" version="1.1" x="124.2931" y="0" viewBox="0.2962725501305952 33.94692138280563 99.40639946256867 36.67107861719437" enable-background="new 0 33.947 100 36.669" xml:space="preserve" width="105.42860840218316" height="38.89267499999999" class="icon-z$-0" data-fill-palette-color="accent" id="z$-0"><g fill="#0023ff" data-fill-palette-color="accent"><path d="M15.524 55.357c-4.213 0-7.629 3.418-7.629 7.631s3.416 7.63 7.629 7.63c4.215 0 7.63-3.417 7.63-7.63S19.738 55.357 15.524 55.357zM15.524 66.189c-1.778 0-3.219-1.441-3.219-3.22s1.441-3.221 3.219-3.221c1.777 0 3.219 1.442 3.219 3.221C18.742 64.748 17.301 66.189 15.524 66.189z" fill="#0023ff" data-fill-palette-color="accent"></path><path d="M82.53 55.355c-4.215 0-7.632 3.417-7.632 7.629 0 4.214 3.417 7.631 7.632 7.631 4.212 0 7.63-3.417 7.63-7.631C90.16 58.772 86.742 55.355 82.53 55.355zM82.53 66.189c-1.778 0-3.222-1.441-3.222-3.22s1.443-3.221 3.222-3.221 3.223 1.442 3.223 3.221S84.309 66.189 82.53 66.189z" fill="#0023ff" data-fill-palette-color="accent"></path><path d="M78.23 44.515c0 0-18.764-8.75-24.754-10.018-5.987-1.268-26.597-0.115-28.554 1.151l-11.515 5.64L2.125 46.815 0.298 57.465c0 0-0.05 6.318 0.388 7.773h5.527l0.071-2.25c0-5.103 4.138-9.24 9.243-9.24 5.103 0 9.238 4.138 9.238 9.24l0.158 2.25h48.359l0.007-2.83c0-5.103 3.856-8.87 8.959-8.87s9.523 3.768 9.523 8.87l0.19 2.616c0 0 5.845 0.33 7.688-0.361 0 0 0.69-9.787-2.878-13.357C93.603 48.308 87.213 46.44 78.23 44.515zM25.956 45.896c0 0 2.363-5.01 4.943-6.924 1.911-1.627 12.446-1.583 12.446-1.583l0.389 9.715L25.956 45.896zM71.613 48.198l-24.698-0.978-0.577-9.846c9.154-0.344 19.576 4.549 25.563 8.06C77.89 48.946 71.613 48.198 71.613 48.198z" fill="#0023ff" data-fill-palette-color="accent"></path></g></svg></g><g transform="matrix(1,0,0,1,241.96480840218314,3.6713374999999964)"><svg width="86.75" viewBox="2 -31.05 86.75 31.55" height="31.549999999999997" data-palette-color="#010c80"><path d="M28.65-31.05L28.65 0 18.1 0 18.1-10.95 12.7-10.95 12.7 0 2 0 2-31.05 12.7-31.05 12.7-19.45 18.1-19.45 18.1-31.05 28.65-31.05ZM43.65-31.05L43.65-11Q43.65-8.3 46.07-8.3 48.5-8.3 48.5-11.05L48.5-11.05 48.5-31.05 59.2-31.05 59.2-10.4Q59.2-4.9 55.75-2.2 52.3 0.5 45.85 0.5L45.85 0.5Q32.75 0.5 32.75-10.3L32.75-10.3 32.75-31.05 43.65-31.05ZM88.75-9.1L88.75-9.1Q88.75 0 77.45 0L77.45 0 63.3 0 63.3-31.05 77.25-31.05Q82.84-31.05 85.52-29.05 88.2-27.05 88.2-22.9 88.2-18.75 84.7-16.5L84.7-16.5 84.7-16.3Q88.75-14.45 88.75-9.1ZM75.4-6.2Q76.75-6.2 77.2-6.78 77.65-7.35 77.65-9.2 77.65-11.05 77.17-11.83 76.7-12.6 75.4-12.6L75.4-12.6 73.95-12.6 73.95-6.2 75.4-6.2ZM75.45-18.1Q76.34-18.1 76.77-18.7 77.2-19.3 77.2-20.78 77.2-22.25 76.77-22.9 76.34-23.55 75.4-23.55L75.4-23.55 73.95-23.55 73.95-18.1 75.45-18.1Z" opacity="1" transform="matrix(1,0,0,1,0,0)" fill="#010c80" class="undefined-lv-1"></path></svg></g></svg></g></svg></g></svg></g></svg></g><g></g></svg></g><defs></defs></svg><rect width="328.71480840218317" height="38.89267499999999" fill="none" stroke="none" visibility="hidden"></rect></g></svg></g></svg>